<svg xmlns="http://www.w3.org/2000/svg" width="84" height="48.774" viewBox="0 0 84 48.774">
  <g id="camas-dobles" transform="translate(-8 -104)">
    <path id="Trazado_1097037" data-name="Trazado 1097037" d="M300.581,126.242V110.774A6.782,6.782,0,0,0,293.806,104H274.839a6.782,6.782,0,0,0-6.774,6.774v15.468a6.772,6.772,0,0,0-4.065,6.21V146a1.355,1.355,0,0,0,1.355,1.355h1.355v4.065a1.355,1.355,0,0,0,1.355,1.355h8.129a1.355,1.355,0,0,0,1.355-1.355v-4.065H291.1v4.065a1.355,1.355,0,0,0,1.355,1.355h8.129a1.355,1.355,0,0,0,1.355-1.355v-4.065h1.355A1.355,1.355,0,0,0,304.645,146V132.452A6.771,6.771,0,0,0,300.581,126.242Zm-29.806-15.468a4.069,4.069,0,0,1,4.065-4.065h18.968a4.069,4.069,0,0,1,4.065,4.065v14.9h-2.71v-1.355a6.782,6.782,0,0,0-6.774-6.774h-8.129a6.782,6.782,0,0,0-6.774,6.774v1.355h-2.71Zm21.677,13.548v1.355H276.194v-1.355a4.069,4.069,0,0,1,4.065-4.065h8.129A4.069,4.069,0,0,1,292.452,124.323Zm-17.613,25.742h-5.419v-2.71h5.419Zm24.387,0h-5.419v-2.71h5.419Zm2.71-5.419H266.71v-2.71h35.226Zm0-5.419H266.71v-2.71h35.226Zm0-5.419H266.71v-1.355a4.06,4.06,0,0,1,4.065-4.065h27.1a4.059,4.059,0,0,1,4.065,4.065Z" transform="translate(-212.645)" fill="#b3c867"/>
    <path id="Trazado_1097038" data-name="Trazado 1097038" d="M369.355,138.71h2.71a1.355,1.355,0,1,0,0-2.71h-2.71a1.355,1.355,0,1,0,0,2.71Z" transform="translate(-299.032 -26.581)" fill="#b3c867"/>
    <path id="Trazado_1097039" data-name="Trazado 1097039" d="M10.71,147.355v4.065a1.355,1.355,0,0,0,1.355,1.355h8.129a1.355,1.355,0,0,0,1.355-1.355v-4.065H35.1v4.065a1.355,1.355,0,0,0,1.355,1.355h8.129a1.355,1.355,0,0,0,1.355-1.355v-4.065H47.29A1.355,1.355,0,0,0,48.645,146V132.452a6.772,6.772,0,0,0-4.065-6.21V110.774A6.782,6.782,0,0,0,37.806,104H18.839a6.782,6.782,0,0,0-6.774,6.774v15.468A6.772,6.772,0,0,0,8,132.452V146a1.355,1.355,0,0,0,1.355,1.355Zm8.129,2.71H13.419v-2.71h5.419Zm24.387,0H37.806v-2.71h5.419Zm-28.452-39.29a4.069,4.069,0,0,1,4.065-4.065H37.806a4.069,4.069,0,0,1,4.065,4.065v14.9h-2.71v-1.355a6.782,6.782,0,0,0-6.774-6.774H24.258a6.782,6.782,0,0,0-6.774,6.774v1.355h-2.71Zm21.677,13.548v1.355H20.194v-1.355a4.069,4.069,0,0,1,4.065-4.065h8.129A4.069,4.069,0,0,1,36.452,124.323ZM10.71,132.452a4.06,4.06,0,0,1,4.065-4.065h27.1a4.059,4.059,0,0,1,4.065,4.065v1.355H10.71Zm0,4.065H45.935v2.71H10.71Zm0,5.419H45.935v2.71H10.71Z" transform="translate(0)" fill="#b3c867"/>
    <path id="Trazado_1097040" data-name="Trazado 1097040" d="M113.355,138.71h2.71a1.355,1.355,0,1,0,0-2.71h-2.71a1.355,1.355,0,1,0,0,2.71Z" transform="translate(-86.387 -26.581)" fill="#b3c867"/>
  </g>
</svg>
