<svg xmlns="http://www.w3.org/2000/svg" width="124" height="124" viewBox="0 0 124 124">
  <g id="Grupo_1194160" data-name="Grupo 1194160" transform="translate(6652 9074)">
    <g id="Grupo_1194152" data-name="Grupo 1194152" transform="translate(527.034 837.141)">
      <g id="Grupo_1193365" data-name="Grupo 1193365" transform="translate(203.825 -286.687)">
        <g id="Grupo_1190972" data-name="Grupo 1190972" transform="translate(-7776.207 -17585.906)">
          <g id="Grupo_1190808" data-name="Grupo 1190808" transform="translate(-708.875 4775)">
            <circle id="Elipse_11474" data-name="Elipse 11474" cx="62" cy="62" r="62" transform="translate(1102.223 3186.452)" fill="#b8dcf3"/>
          </g>
        </g>
      </g>
    </g>
    <path id="llave-de-la-habitacion" d="M58.834,19.889H55a5.117,5.117,0,0,1-5.111-5.111A5.18,5.18,0,0,1,55,9.667a5.116,5.116,0,0,1,5.111,5.111,1.277,1.277,0,0,0,1.278,1.278H66.5a1.277,1.277,0,0,0,1.278-1.278A12.793,12.793,0,0,0,54.152,2.028a13.01,13.01,0,0,0-11.93,13.145V69.723a8.955,8.955,0,0,0,8.945,8.945h7.667a8.955,8.955,0,0,0,8.945-8.945V28.834a8.955,8.955,0,0,0-8.945-8.945Zm6.389,49.834a6.4,6.4,0,0,1-6.389,6.389H51.167a6.4,6.4,0,0,1-6.389-6.389V15.172a10.45,10.45,0,0,1,9.54-10.594c.229-.015.457-.022.683-.022A10.238,10.238,0,0,1,65.143,13.5H62.56A7.679,7.679,0,0,0,55,7.111a7.77,7.77,0,0,0-7.667,7.667A7.675,7.675,0,0,0,55,22.445h3.833a6.4,6.4,0,0,1,6.389,6.389ZM55,26.278a7.667,7.667,0,1,0,7.667,7.667A7.675,7.675,0,0,0,55,26.278Zm0,12.778a5.111,5.111,0,1,1,5.111-5.111A5.117,5.117,0,0,1,55,39.056ZM23.056,14.778a5.111,5.111,0,1,0,5.111,5.111A5.117,5.117,0,0,0,23.056,14.778Zm0,7.667a2.556,2.556,0,1,1,2.556-2.556A2.559,2.559,0,0,1,23.056,22.445Zm0-16.611A14.052,14.052,0,0,0,16.667,32.4V64.612a1.278,1.278,0,0,0,.168.634l5.111,8.945a1.278,1.278,0,0,0,2.219,0l5.111-8.945a1.278,1.278,0,0,0,.168-.634V55.245a1.28,1.28,0,0,0-.414-.942l-2.692-2.469h1.828a1.277,1.277,0,0,0,1.278-1.278v-4.97a1.278,1.278,0,0,0-.212-.705l-3.007-4.547h1.942a1.277,1.277,0,0,0,1.278-1.278V32.4A14.052,14.052,0,0,0,23.056,5.833Zm4.6,24.589a1.279,1.279,0,0,0-.767,1.172v6.184H23.848a1.278,1.278,0,0,0-1.066,1.983l4.107,6.209v3.308H23.056a1.278,1.278,0,0,0-.864,2.22l4.7,4.309v8.465l-3.833,6.708-3.833-6.708V31.594a1.279,1.279,0,0,0-.767-1.172,11.5,11.5,0,1,1,9.2,0Z" transform="translate(-6628 -9051.999)" fill="#20849e"/>
  </g>
</svg>
