<svg xmlns="http://www.w3.org/2000/svg" width="124" height="124" viewBox="0 0 124 124">
  <g id="Grupo_1194157" data-name="Grupo 1194157" transform="translate(6193 9082.001)">
    <g id="Grupo_1194154" data-name="Grupo 1194154" transform="translate(986.034 829.141)">
      <g id="Grupo_1193365" data-name="Grupo 1193365" transform="translate(203.825 -286.687)">
        <g id="Grupo_1190972" data-name="Grupo 1190972" transform="translate(-7776.207 -17585.906)">
          <g id="Grupo_1190808" data-name="Grupo 1190808" transform="translate(-708.875 4775)">
            <circle id="Elipse_11474" data-name="Elipse 11474" cx="62" cy="62" r="62" transform="translate(1102.223 3186.452)" fill="#b8dcf3"/>
          </g>
        </g>
      </g>
    </g>
    <g id="plato" transform="translate(-6169 -9059)">
      <g id="Grupo_1194104" data-name="Grupo 1194104" transform="translate(41.312 19.357)">
        <g id="Grupo_1194103" data-name="Grupo 1194103">
          <path id="Trazado_1097077" data-name="Trazado 1097077" d="M269.549,126.7l-.829-2.728a5.925,5.925,0,0,0-11.221,0l-.829,2.728a15.322,15.322,0,0,0-.427,7.1,6.678,6.678,0,0,0,3.439,4.654l-.928,20.749a4.088,4.088,0,0,0,1.033,3.178,4.509,4.509,0,0,0,6.371.285q.149-.136.285-.285a4.033,4.033,0,0,0,1.033-3.092l-.933-20.838a6.677,6.677,0,0,0,3.434-4.651A15.323,15.323,0,0,0,269.549,126.7Zm-2.116,6.651a4.093,4.093,0,0,1-2.679,3.084,1.291,1.291,0,0,0-.835,1.266L264.9,159.5a1.493,1.493,0,0,1-.387,1.17,1.994,1.994,0,0,1-2.807,0,1.549,1.549,0,0,1-.38-1.255L262.3,137.7a1.291,1.291,0,0,0-.835-1.266,4.093,4.093,0,0,1-2.679-3.084,12.73,12.73,0,0,1,.355-5.894l.829-2.729a3.347,3.347,0,0,1,6.279,0l.829,2.729A12.748,12.748,0,0,1,267.434,133.355Z" transform="translate(-256.012 -119.955)" fill="#20849e"/>
        </g>
      </g>
      <g id="Grupo_1194106" data-name="Grupo 1194106" transform="translate(21.946 19.364)">
        <g id="Grupo_1194105" data-name="Grupo 1194105">
          <path id="Trazado_1097078" data-name="Trazado 1097078" d="M148.909,120a1.291,1.291,0,0,0-1.291,1.291v11.084l-3.495,3.495a1.291,1.291,0,0,0-.378.977l1.13,22.591a1.759,1.759,0,0,1-.488,1.315,1.818,1.818,0,0,1-2.571.011l-.011-.011a1.758,1.758,0,0,1-.488-1.315l1.137-22.591a1.291,1.291,0,0,0-.377-.977l-3.5-3.495V121.291a1.291,1.291,0,0,0-2.582,0v11.618a1.291,1.291,0,0,0,.378.913l3.467,3.469-1.1,22.022a4.361,4.361,0,0,0,8.711.424q.01-.212,0-.424l-1.1-22.022,3.467-3.469a1.291,1.291,0,0,0,.378-.913V121.291A1.291,1.291,0,0,0,148.909,120Z" transform="translate(-136 -120)" fill="#20849e"/>
        </g>
      </g>
      <g id="Grupo_1194108" data-name="Grupo 1194108" transform="translate(25.819 19.364)">
        <g id="Grupo_1194107" data-name="Grupo 1194107">
          <path id="Trazado_1097079" data-name="Trazado 1097079" d="M161.291,120A1.291,1.291,0,0,0,160,121.291v10.328a1.291,1.291,0,1,0,2.582,0V121.291A1.291,1.291,0,0,0,161.291,120Z" transform="translate(-160 -120)" fill="#20849e"/>
        </g>
      </g>
      <g id="Grupo_1194110" data-name="Grupo 1194110" transform="translate(29.692 19.364)">
        <g id="Grupo_1194109" data-name="Grupo 1194109">
          <path id="Trazado_1097080" data-name="Trazado 1097080" d="M185.291,120A1.291,1.291,0,0,0,184,121.291v10.328a1.291,1.291,0,0,0,2.582,0V121.291A1.291,1.291,0,0,0,185.291,120Z" transform="translate(-184 -120)" fill="#20849e"/>
        </g>
      </g>
      <g id="Grupo_1194112" data-name="Grupo 1194112">
        <g id="Grupo_1194111" data-name="Grupo 1194111">
          <path id="Trazado_1097081" data-name="Trazado 1097081" d="M38.728,0A38.728,38.728,0,1,0,77.457,38.728,38.728,38.728,0,0,0,38.728,0Zm0,74.875A36.146,36.146,0,1,1,74.875,38.728,36.146,36.146,0,0,1,38.728,74.875Z" fill="#20849e"/>
        </g>
      </g>
      <g id="Grupo_1194114" data-name="Grupo 1194114" transform="translate(34.551 61.796)">
        <g id="Grupo_1194113" data-name="Grupo 1194113">
          <path id="Trazado_1097082" data-name="Trazado 1097082" d="M222.481,384.114a1.291,1.291,0,0,0-1.41-1.159l-.05.006h.005a23.715,23.715,0,0,1-5.471,0,1.291,1.291,0,0,0-.3,2.565,26.152,26.152,0,0,0,6.067,0A1.291,1.291,0,0,0,222.481,384.114Z" transform="translate(-214.113 -382.949)" fill="#20849e"/>
        </g>
      </g>
      <g id="Grupo_1194116" data-name="Grupo 1194116" transform="translate(54.751 21.632)">
        <g id="Grupo_1194115" data-name="Grupo 1194115">
          <path id="Trazado_1097083" data-name="Trazado 1097083" d="M343.023,134.514a1.291,1.291,0,0,0-1.819-.159l-.005,0a1.291,1.291,0,0,0-.155,1.819,23.237,23.237,0,0,1-1.37,31.431,1.291,1.291,0,1,0,1.823,1.829A25.819,25.819,0,0,0,343.023,134.514Z" transform="translate(-339.295 -134.053)" fill="#20849e"/>
        </g>
      </g>
      <g id="Grupo_1194119" data-name="Grupo 1194119" transform="translate(28.785 12.914)">
        <g id="Grupo_1194118" data-name="Grupo 1194118">
          <g id="Grupo_1194117" data-name="Grupo 1194117">
            <path id="Trazado_1097084" data-name="Trazado 1097084" d="M186.358,105.743h0Z" transform="translate(-185.066 -101.593)" fill="#20849e"/>
            <path id="Trazado_1097085" data-name="Trazado 1097085" d="M194.414,80.744a26.047,26.047,0,0,0-15.2.933,1.29,1.29,0,1,0,.9,2.415,23.452,23.452,0,0,1,13.684-.839,1.291,1.291,0,0,0,.607-2.51Z" transform="translate(-178.382 -80.027)" fill="#20849e"/>
          </g>
        </g>
      </g>
      <g id="Grupo_1194121" data-name="Grupo 1194121" transform="translate(12.908 22.993)">
        <g id="Grupo_1194120" data-name="Grupo 1194120">
          <path id="Trazado_1097086" data-name="Trazado 1097086" d="M89.349,174.618a23.234,23.234,0,0,1-2.334-30.063A1.291,1.291,0,0,0,84.951,143l-.022.031a25.819,25.819,0,0,0,2.591,33.412,1.293,1.293,0,1,0,1.829-1.828Z" transform="translate(-79.989 -142.488)" fill="#20849e"/>
        </g>
      </g>
    </g>
  </g>
</svg>
