<svg xmlns="http://www.w3.org/2000/svg" xmlns:xlink="http://www.w3.org/1999/xlink" width="109" height="109" viewBox="0 0 109 109">
  <defs>
    <filter id="Elipse_13845" x="0" y="0" width="109" height="109" filterUnits="userSpaceOnUse">
      <feOffset dy="3" input="SourceAlpha"/>
      <feGaussianBlur stdDeviation="3" result="blur"/>
      <feFlood flood-opacity="0.161"/>
      <feComposite operator="in" in2="blur"/>
      <feComposite in="SourceGraphic"/>
    </filter>
  </defs>
  <g id="Grupo_1194163" data-name="Grupo 1194163" transform="translate(-176.348 -4024)">
    <g transform="matrix(1, 0, 0, 1, 176.35, 4024)" filter="url(#Elipse_13845)">
      <circle id="Elipse_13845-2" data-name="Elipse 13845" cx="45.5" cy="45.5" r="45.5" transform="translate(9 6)" fill="#fff"/>
    </g>
    <g id="servicio-de-lavanderia" transform="translate(213.79 4048.715)">
      <path id="Trazado_1097095" data-name="Trazado 1097095" d="M82.419,39.976a.734.734,0,0,0,.734-.734V23.057A15.609,15.609,0,0,1,98.009,7.484V9.4A13.686,13.686,0,0,0,85.074,23.053V35.466A3.028,3.028,0,0,0,88.1,38.49h2.725v4.825a3.028,3.028,0,0,0,3.024,3.024h9.791a3.028,3.028,0,0,0,3.024-3.024V38.49h2.725a3.028,3.028,0,0,0,3.024-3.024V23.053A13.686,13.686,0,0,0,99.477,9.4V7.484A15.591,15.591,0,0,1,114.333,23.1a.734.734,0,0,0,1.468,0A17.066,17.066,0,0,0,101.526,6.224a3.735,3.735,0,1,0-6.518-2.489.734.734,0,0,0,1.468,0A2.268,2.268,0,1,1,98.743,6,17.077,17.077,0,0,0,81.685,23.057V39.242a.734.734,0,0,0,.734.734Zm12.9-25.423h6.844l-3.422,5.927Zm2.688-1.468H94.474L93.791,11.9a12.11,12.11,0,0,1,4.218-1.028Zm-5.521-.5,4.248,7.357-7.6-4.4a12.293,12.293,0,0,1,3.354-2.961Zm-.2,30.734V26.038a.734.734,0,0,0-1.468,0V37.023H88.1a1.558,1.558,0,0,1-1.556-1.556V23.053a12.127,12.127,0,0,1,1.755-6.3l9.712,5.617v22.5H93.847A1.558,1.558,0,0,1,92.291,43.315Zm18.653-7.849a1.558,1.558,0,0,1-1.556,1.556h-2.725V26.038a.734.734,0,0,0-1.468,0V43.315a1.558,1.558,0,0,1-1.556,1.556H99.477V22.37l9.712-5.617a12.127,12.127,0,0,1,1.755,6.3Zm-2.592-19.924-7.6,4.4L105,12.581a12.3,12.3,0,0,1,3.354,2.961ZM103.694,11.9l-.682,1.182H99.477v-2.21A12.114,12.114,0,0,1,103.694,11.9Z" transform="translate(-81.685 0)" fill="#819aaa"/>
      <path id="Trazado_1097096" data-name="Trazado 1097096" d="M115.066,263.891a.734.734,0,0,0-.734.734v17.5a4.581,4.581,0,0,1-4.576,4.576H87.728a4.581,4.581,0,0,1-4.576-4.576v-1.392a.734.734,0,0,0-1.468,0v1.392a6.05,6.05,0,0,0,6.044,6.044h22.028a6.05,6.05,0,0,0,6.044-6.044v-17.5A.734.734,0,0,0,115.066,263.891Z" transform="translate(-81.684 -238.068)" fill="#819aaa"/>
    </g>
  </g>
</svg>
