<svg xmlns="http://www.w3.org/2000/svg" width="124" height="124" viewBox="0 0 124 124">
  <g id="Grupo_1194158" data-name="Grupo 1194158" transform="translate(6058 9095.001)">
    <g id="Grupo_1194156" data-name="Grupo 1194156" transform="translate(1121.034 816.141)">
      <g id="Grupo_1193365" data-name="Grupo 1193365" transform="translate(203.825 -286.687)">
        <g id="Grupo_1190972" data-name="Grupo 1190972" transform="translate(-7776.207 -17585.906)">
          <g id="Grupo_1190808" data-name="Grupo 1190808" transform="translate(-708.875 4775)">
            <circle id="Elipse_11474" data-name="Elipse 11474" cx="62" cy="62" r="62" transform="translate(1102.223 3186.452)" fill="#b8dcf3"/>
          </g>
        </g>
      </g>
    </g>
    <g id="restaurante" transform="translate(-6036 -9061)">
      <g id="Grupo_1194122" data-name="Grupo 1194122" transform="translate(0 0)">
        <path id="Trazado_1097092" data-name="Trazado 1097092" d="M147.452,100.554a3,3,0,0,0,.324-2.782,7.13,7.13,0,0,0-6.61-4.532h-4.1V89.566a3.554,3.554,0,0,0,2.369-3.347V84.485a1.816,1.816,0,0,0-1.814-1.814h-3.47a1.816,1.816,0,0,0-1.814,1.814V86.22a3.555,3.555,0,0,0,2.369,3.347V93.24h-7.464V84.748c.143-1.658-1.4-3.332-2.6-4.433v-4.4a1.18,1.18,0,0,0-2.359,0v4.4c-1.2,1.151-2.648,2.524-2.6,4.433V93.24h-7.464V89.566a3.554,3.554,0,0,0,2.369-3.347V84.485a1.816,1.816,0,0,0-1.814-1.814h-3.47a1.816,1.816,0,0,0-1.814,1.814V86.22a3.554,3.554,0,0,0,2.369,3.347V93.24h-4.039a7.13,7.13,0,0,0-6.61,4.532,3.056,3.056,0,0,0,2.8,4.087h15.112v2.7a3.472,3.472,0,0,0,3.469,3.469h1.725v15.8l-5.532,4.452a1.783,1.783,0,0,0,1.035,3.187l11.354-.006a1.78,1.78,0,0,0,1.031-3.189l-5.529-4.429V108.031h1.725a3.472,3.472,0,0,0,3.469-3.469V100.68a1.179,1.179,0,0,0-1.18-1.18H102c-.289-.064-.684-.1-.6-.878a4.756,4.756,0,0,1,4.409-3.023h35.356a4.756,4.756,0,0,1,4.409,3.023c.044.292.156.673-.6.878H134.31a1.18,1.18,0,1,0,0,2.359h10.665A3,3,0,0,0,147.452,100.554ZM134.695,85.03h2.38v1.19a1.19,1.19,0,0,1-2.38,0V85.03Zm-24.855,0h2.38v1.19a1.19,1.19,0,0,1-2.38,0Zm9.673,44.083,3.967-3.193,3.981,3.188Zm7.99-27.253v2.7a1.111,1.111,0,0,1-1.109,1.109h-5.81a1.111,1.111,0,0,1-1.109-1.109v-2.7Zm-5.471-8.62V84.748c.9-3.364,2.432-2.079,2.85,0V93.24Z" transform="translate(-83.429 -74.736)" fill="#20849e"/>
        <path id="Trazado_1097093" data-name="Trazado 1097093" d="M19.054,169.518a4.176,4.176,0,0,0-.182-.412,3.85,3.85,0,0,0,4.564-3.627,3.631,3.631,0,0,0-3.627-3.627H7.253V149.361a1.18,1.18,0,1,0-2.359,0v12.652a2.2,2.2,0,0,0,2.2,2.2H19.809a1.267,1.267,0,0,1,0,2.535H7.093a4.739,4.739,0,0,1-4.734-4.734v-20.63a1.267,1.267,0,1,1,2.535,0v2.423a1.18,1.18,0,0,0,2.359,0v-2.423a3.627,3.627,0,1,0-7.253,0v20.63a7.1,7.1,0,0,0,6.481,7.065,4.263,4.263,0,0,0-.243.582L1.813,183.032a1.18,1.18,0,1,0,2.24.741L8.478,170.4a1.885,1.885,0,0,1,1.792-1.295h4.8a1.9,1.9,0,0,1,1.77,1.232l4.994,13.474a1.219,1.219,0,0,0,1.516.7,1.179,1.179,0,0,0,.7-1.516Z" transform="translate(0 -127.845)" fill="#20849e"/>
        <path id="Trazado_1097094" data-name="Trazado 1097094" d="M380.954,162.014v-20.63a3.627,3.627,0,1,0-7.253,0v20.469H361.144a3.631,3.631,0,0,0-3.627,3.627,3.858,3.858,0,0,0,4.564,3.627,4.166,4.166,0,0,0-.181.412l-4.994,13.474a1.18,1.18,0,0,0,.7,1.516,1.234,1.234,0,0,0,1.516-.7l4.994-13.474a1.9,1.9,0,0,1,1.77-1.232h4.8a1.885,1.885,0,0,1,1.792,1.295l4.425,13.371a1.18,1.18,0,1,0,2.24-.741l-4.425-13.371a4.256,4.256,0,0,0-.243-.581,7.177,7.177,0,0,0,6.481-7.065Zm-2.359,0a4.807,4.807,0,0,1-4.734,4.734H361.144a1.268,1.268,0,0,1,0-2.535h12.716a2.2,2.2,0,0,0,2.2-2.2v-20.63a1.267,1.267,0,1,1,2.535,0Z" transform="translate(-300.708 -127.845)" fill="#20849e"/>
      </g>
    </g>
  </g>
</svg>
