<svg xmlns="http://www.w3.org/2000/svg" width="105.006" height="105.006" viewBox="0 0 105.006 105.006">
  <g id="Grupo_1194170" data-name="Grupo 1194170" transform="translate(7291.795 7433.945)">
    <g id="Grupo_1193748" data-name="Grupo 1193748" transform="translate(-3207.959 2697.634)">
      <circle id="Elipse_11481" data-name="Elipse 11481" cx="52.503" cy="52.503" r="52.503" transform="translate(-4083.836 -10131.58)" fill="#e9f8fc"/>
    </g>
    <path id="habitacion-de-hotel" d="M72.744,38.714a.966.966,0,0,1,.967.967v3.948l1.676,1.4a.968.968,0,0,1-1.239,1.487l-2.024-1.687a.966.966,0,0,1-.349-.743v-4.4A.968.968,0,0,1,72.744,38.714Zm5.779,5.031a5.779,5.779,0,1,0-5.779,5.78A5.786,5.786,0,0,0,78.523,43.745Zm-13.495,0a7.715,7.715,0,1,0,7.715-7.714A7.723,7.723,0,0,0,65.029,43.745Zm35.086,37.671V49.422L72.744,27.12l-27.371,22.3V81.416a3.018,3.018,0,0,0,3.014,3.015h.587V72.555a4.819,4.819,0,0,1,4.247-4.778V58.628a5.06,5.06,0,0,1,5.056-5.055H87.213a5.06,5.06,0,0,1,5.055,5.055v9.149a4.818,4.818,0,0,1,4.246,4.778V84.431H97.1A3.018,3.018,0,0,0,100.115,81.416ZM94.2,86.841h-42.9a.383.383,0,0,1-.382-.382v-5.31H94.579v5.31A.383.383,0,0,1,94.2,86.841ZM53.787,69.679H91.7a2.879,2.879,0,0,1,2.877,2.876v6.659H50.909V72.555a2.88,2.88,0,0,1,2.878-2.876Zm15.628-1.936H59.79V63.486a1.907,1.907,0,0,1,1.905-1.9H67.51a1.906,1.906,0,0,1,1.9,1.9Zm16.283,0H76.073V63.486a1.908,1.908,0,0,1,1.906-1.9h5.814a1.907,1.907,0,0,1,1.9,1.9v4.257Zm4.634,0h-2.7V63.486a3.844,3.844,0,0,0-3.84-3.839H77.979a3.844,3.844,0,0,0-3.842,3.839v4.257H71.351V63.486a3.844,3.844,0,0,0-3.84-3.839H61.7a3.844,3.844,0,0,0-3.84,3.839v4.257h-2.7V58.629a3.123,3.123,0,0,1,3.12-3.119H87.213a3.122,3.122,0,0,1,3.119,3.119v9.114Zm11.363-19.531L73.356,25.121a.965.965,0,0,0-1.221,0L43.794,48.212a.973.973,0,0,0-.357.75V81.416a4.956,4.956,0,0,0,4.95,4.95h.587v.093a2.32,2.32,0,0,0,2.317,2.318H94.2a2.321,2.321,0,0,0,2.318-2.318v-.093H97.1a4.955,4.955,0,0,0,4.95-4.95V48.962A.968.968,0,0,0,101.695,48.212Z" transform="translate(-7312.036 -7438.871)" fill="#20849e" fill-rule="evenodd"/>
  </g>
</svg>
