<svg xmlns="http://www.w3.org/2000/svg" width="105.006" height="105.006" viewBox="0 0 105.006 105.006">
  <g id="Grupo_1194168" data-name="Grupo 1194168" transform="translate(7021.05 7434.537)">
    <g id="Grupo_1194167" data-name="Grupo 1194167" transform="translate(-2937.213 2697.043)">
      <circle id="Elipse_11481" data-name="Elipse 11481" cx="52.503" cy="52.503" r="52.503" transform="translate(-4083.836 -10131.58)" fill="#e9f8fc"/>
    </g>
    <g id="llave-del-hotel" transform="translate(-6998.807 -7411.791)">
      <g id="Grupo_1194089" data-name="Grupo 1194089" transform="translate(34.925 12.585)">
        <path id="Trazado_1097056" data-name="Trazado 1097056" d="M271,119.1a12.8,12.8,0,1,1,12.8-12.8A12.81,12.81,0,0,1,271,119.1Zm0-24.162a11.379,11.379,0,1,0,11.379,11.379A11.4,11.4,0,0,0,271,94.933Z" transform="translate(-258.2 -93.5)" fill="#20849e"/>
      </g>
      <g id="Grupo_1194090" data-name="Grupo 1194090" transform="translate(42.601 35.946)">
        <path id="Trazado_1097057" data-name="Trazado 1097057" d="M316.627,284.907a.732.732,0,0,1-.468-.17l-3.6-3.079a.724.724,0,0,1-.255-.539V276.3a.7.7,0,0,1,.709-.709h1.362a.33.33,0,0,0,.326-.326v-1.844a.33.33,0,0,0-.326-.326h-1.362a.7.7,0,0,1-.709-.709v-3.121a.7.7,0,0,1,.709-.709h1.362a.33.33,0,0,0,.326-.326v-1.844a.33.33,0,0,0-.326-.326h-1.362a.7.7,0,0,1-.709-.709v-6.484a.7.7,0,0,1,.312-.582.714.714,0,0,1,.653-.071,11.413,11.413,0,0,0,7.08.4.676.676,0,0,1,.61.128.741.741,0,0,1,.284.568v21.849a.7.7,0,0,1-.27.553l-3.916,3.079A.785.785,0,0,1,316.627,284.907Zm-2.894-4.1,2.909,2.483,3.192-2.5V260.164a12.513,12.513,0,0,1-2.412.227,12.894,12.894,0,0,1-3.689-.539v4.781h.653a1.744,1.744,0,0,1,1.745,1.745v1.844a1.744,1.744,0,0,1-1.745,1.745h-.653v1.7h.653a1.744,1.744,0,0,1,1.745,1.745v1.844A1.744,1.744,0,0,1,314.386,277h-.653Z" transform="translate(-312.3 -258.157)" fill="#20849e"/>
      </g>
      <g id="Grupo_1194091" data-name="Grupo 1194091" transform="translate(43.069 15.848)">
        <path id="Trazado_1097058" data-name="Trazado 1097058" d="M320.466,126.233a4.866,4.866,0,1,1,4.866-4.866A4.874,4.874,0,0,1,320.466,126.233Zm0-8.328a3.448,3.448,0,1,0,3.448,3.448A3.451,3.451,0,0,0,320.466,117.9Z" transform="translate(-315.6 -116.5)" fill="#20849e"/>
      </g>
      <g id="Grupo_1194092" data-name="Grupo 1194092" transform="translate(47.864 36.733)">
        <path id="Trazado_1097059" data-name="Trazado 1097059" d="M350.109,281.194a.7.7,0,0,1-.709-.709V264.409a.709.709,0,0,1,1.419,0v16.075A.7.7,0,0,1,350.109,281.194Z" transform="translate(-349.4 -263.7)" fill="#20849e"/>
      </g>
      <g id="Grupo_1194093" data-name="Grupo 1194093" transform="translate(41.792 27.439)">
        <path id="Trazado_1097060" data-name="Trazado 1097060" d="M317.227,199.619h-9.917a.709.709,0,0,1,0-1.419h9.917a.709.709,0,1,1,0,1.419Z" transform="translate(-306.6 -198.2)" fill="#20849e"/>
      </g>
      <g id="Grupo_1194094" data-name="Grupo 1194094" transform="translate(41.466 30.958)">
        <path id="Trazado_1097061" data-name="Trazado 1097061" d="M315.253,224.419H305.009a.709.709,0,0,1,0-1.419h10.244a.709.709,0,1,1,0,1.419Z" transform="translate(-304.3 -223)" fill="#20849e"/>
      </g>
      <g id="Grupo_1194095" data-name="Grupo 1194095" transform="translate(29.548 0)">
        <path id="Trazado_1097062" data-name="Trazado 1097062" d="M232.048,28.3A11.762,11.762,0,0,1,220.3,16.548a11.167,11.167,0,0,1,.057-1.192.713.713,0,0,1,1.419.142,8.523,8.523,0,0,0-.057,1.05A10.333,10.333,0,0,0,240.83,22a.711.711,0,0,1,1.206.752A11.708,11.708,0,0,1,232.048,28.3Zm10.8-8.669a.582.582,0,0,1-.156-.014.706.706,0,0,1-.539-.837,10.606,10.606,0,0,0,.241-2.228,10.334,10.334,0,0,0-19.182-5.335.713.713,0,1,1-1.22-.738,11.761,11.761,0,0,1,21.551,8.6A.725.725,0,0,1,242.845,19.626Z" transform="translate(-220.3 -4.8)" fill="#20849e"/>
      </g>
      <g id="Grupo_1194096" data-name="Grupo 1194096" transform="translate(0 4.46)">
        <path id="Trazado_1097063" data-name="Trazado 1097063" d="M35.161,84.4a.64.64,0,0,1-.355-.1L12.389,71.36a.69.69,0,0,1-.326-.426.718.718,0,0,1,.071-.539L28.989,41.182a.681.681,0,0,1,.44-.326l17.593-4.6a.716.716,0,0,1,.865.5L51.279,49.1a.706.706,0,1,1-1.362.369L46.71,37.805,30.068,42.147,13.709,70.48l21.2,12.23L47.675,60.591a.706.706,0,1,1,1.22.709L35.771,84.029a.744.744,0,0,1-.426.326.3.3,0,0,1-.184.043Z" transform="translate(-12.041 -36.235)" fill="#20849e"/>
      </g>
      <g id="Grupo_1194097" data-name="Grupo 1194097" transform="translate(13.247 25.128)">
        <path id="Trazado_1097064" data-name="Trazado 1097064" d="M120.037,191.359a.64.64,0,0,1-.355-.1l-13.918-8.03a.706.706,0,0,1,.709-1.22l13.918,8.03a.708.708,0,0,1-.355,1.319Z" transform="translate(-105.411 -181.911)" fill="#20849e"/>
      </g>
      <g id="Grupo_1194098" data-name="Grupo 1194098" transform="translate(10.169 30.449)">
        <path id="Trazado_1097065" data-name="Trazado 1097065" d="M98.337,228.859a.64.64,0,0,1-.355-.1l-13.918-8.03a.706.706,0,0,1,.709-1.22l13.918,8.03a.7.7,0,0,1,.255.965.686.686,0,0,1-.61.355Z" transform="translate(-83.711 -219.411)" fill="#20849e"/>
      </g>
      <g id="Grupo_1194099" data-name="Grupo 1194099" transform="translate(7.104 35.769)">
        <path id="Trazado_1097066" data-name="Trazado 1097066" d="M76.737,266.359a.64.64,0,0,1-.355-.1l-13.918-8.03a.706.706,0,1,1,.709-1.22l13.918,8.03a.7.7,0,0,1,.255.965A.734.734,0,0,1,76.737,266.359Z" transform="translate(-62.111 -256.911)" fill="#20849e"/>
      </g>
      <g id="Grupo_1194100" data-name="Grupo 1194100" transform="translate(25.333 9.874)">
        <path id="Trazado_1097067" data-name="Trazado 1097067" d="M195.094,83.42a4.368,4.368,0,0,1-2.242-.61,4.489,4.489,0,0,1-2.1-2.738,4.5,4.5,0,1,1,5.5,3.192A4.6,4.6,0,0,1,195.094,83.42Zm.014-7.591a3.177,3.177,0,0,0-.809.114,2.994,2.994,0,1,0,.809-.114Z" transform="translate(-190.596 -74.396)" fill="#20849e"/>
      </g>
    </g>
  </g>
</svg>
