<svg xmlns="http://www.w3.org/2000/svg" width="105.006" height="105.006" viewBox="0 0 105.006 105.006">
  <g id="Grupo_1194169" data-name="Grupo 1194169" transform="translate(7157.701 7433.583)">
    <g id="Grupo_1194166" data-name="Grupo 1194166" transform="translate(-3073.865 2697.997)">
      <circle id="Elipse_11481" data-name="Elipse 11481" cx="52.503" cy="52.503" r="52.503" transform="translate(-4083.836 -10131.58)" fill="#e9f8fc"/>
    </g>
    <g id="ouline" transform="translate(-7132.979 -7411.791)">
      <path id="Trazado_1097050" data-name="Trazado 1097050" d="M140.738,41.11a1.062,1.062,0,0,0-.959-.01l-19.191,9.457a1.065,1.065,0,0,0-.589.953V86.659a1.065,1.065,0,0,0,1.065,1.065h37.279a1.065,1.065,0,0,0,1.065-1.065V51.51a1.065,1.065,0,0,0-.567-.941S143.651,42.618,140.738,41.11Zm-.5,9.975,2.044,2.555h-4.089Zm1.844,4.686a2.129,2.129,0,0,1-3.689,0Zm15.2,29.823H122.13V52.168l17.042-8.521v5.359l-4.027,5.033a1.065,1.065,0,0,0,.832,1.731h.135a4.26,4.26,0,0,0,8.251,0h.135a1.065,1.065,0,0,0,.832-1.731L141.3,49.006V43.693l15.977,8.458Z" transform="translate(-107.219 -40.991)" fill="#20849e"/>
      <path id="Trazado_1097051" data-name="Trazado 1097051" d="M183.977,220.256v1.065h-4.444a3.194,3.194,0,0,0-3.012-4.26h-2.13a3.175,3.175,0,0,0-1.393.32,2.662,2.662,0,0,0-5,1.278v13.314a1.065,1.065,0,0,0,1.065,1.065h3.2a1.065,1.065,0,0,0,1.065-1.065v-2.13H189.3v2.13a1.065,1.065,0,0,0,1.065,1.065h3.2a1.065,1.065,0,0,0,1.065-1.065V221.854a2.666,2.666,0,0,0-2.663-2.663h-6.923A1.065,1.065,0,0,0,183.977,220.256Zm-10.651,0a1.066,1.066,0,0,1,1.065-1.065h2.13a1.065,1.065,0,0,1,0,2.13h-3.2Zm10.651,7.456H172.26a1.065,1.065,0,0,0-1.065,1.065v2.13H170.13V218.659a.533.533,0,1,1,1.065,0v6.923a1.065,1.065,0,0,0,1.065,1.065h11.716Zm0-3.2H173.326v-1.065h10.651Zm8.521,6.391h-1.065v-1.065H192.5Zm-6.391-9.586h5.858a.533.533,0,0,1,.533.533v5.858h-6.391Z" transform="translate(-148.828 -192.695)" fill="#20849e"/>
      <path id="Trazado_1097052" data-name="Trazado 1097052" d="M25.818,59.948l.312-.312V110.32a1.065,1.065,0,0,0,1.065,1.065H80.009l-.312.312A1.065,1.065,0,0,0,81.2,113.2l2.13-2.13a1.065,1.065,0,0,0,0-1.506l-2.13-2.13a1.065,1.065,0,1,0-1.506,1.506l.312.312H72.995v-3.2a1.065,1.065,0,0,0-2.13,0v3.2H66.6v-2.13a1.065,1.065,0,1,0-2.13,0v2.13h-4.26v-3.2a1.065,1.065,0,0,0-2.13,0v3.2h-4.26v-3.2a1.065,1.065,0,0,0-2.13,0v3.2h-4.26v-2.13a1.065,1.065,0,1,0-2.13,0v2.13h-4.26v-3.2a1.065,1.065,0,0,0-2.13,0v3.2h-4.26v-2.13a1.065,1.065,0,1,0-2.13,0v2.13H28.26v-4.26h2.13a1.065,1.065,0,0,0,0-2.13H28.26V98.6h3.2a1.065,1.065,0,0,0,0-2.13h-3.2v-4.26h2.13a1.065,1.065,0,1,0,0-2.13H28.26v-4.26h3.2a1.065,1.065,0,0,0,0-2.13h-3.2v-4.26h3.2a1.065,1.065,0,0,0,0-2.13h-3.2v-4.26h2.13a1.065,1.065,0,1,0,0-2.13H28.26v-4.26h3.2a1.065,1.065,0,0,0,0-2.13h-3.2V59.636l.312.312a1.065,1.065,0,0,0,1.506-1.506l-2.13-2.13a1.065,1.065,0,0,0-1.506,0l-2.13,2.13a1.065,1.065,0,0,0,1.506,1.506Z" transform="translate(-24 -54.001)" fill="#20849e"/>
    </g>
  </g>
</svg>
