<svg xmlns="http://www.w3.org/2000/svg" width="82.695" height="82.695" viewBox="0 0 82.695 82.695">
  <g id="registrarse" transform="translate(-16 -16)">
    <path id="Trazado_1097146" data-name="Trazado 1097146" d="M97.317,53.213H95.2a5.478,5.478,0,0,0,.742-2.757,18.99,18.99,0,0,0-1.995-8.449l-.907-1.815a1.378,1.378,0,0,0-.616-.616l-3.18-1.59a4.723,4.723,0,0,0,3.443-6.771L91.8,29.457V28.406a9.657,9.657,0,0,0-9.688-9.649h-.208a9.4,9.4,0,0,0-9.4,9.406v1.295l-.879,1.759A4.723,4.723,0,0,0,75.8,38.051l-2.627,1.576a1.378,1.378,0,0,0-.642.912l-1.221,6.107-7.511,2.5a1.378,1.378,0,0,0-.942,1.308v2.757h-.807l-7.462-7.462V37.579a6.846,6.846,0,0,0-2.018-4.873l-2.882-2.882a5.478,5.478,0,0,0,.766-2.8V20.552a4.552,4.552,0,0,0-7.077-3.788l-3.335,2.223a1.378,1.378,0,0,0-.614,1.147v6.891a5.478,5.478,0,0,0,.766,2.8L36.62,33.4a6.925,6.925,0,0,0-1.665,2.694l-3.723,11.17a1.378,1.378,0,0,0-.022.8l4.135,15.161a1.378,1.378,0,0,0,1.33,1.016h1.771l-.39,15.038-1.381,8.976V72.508A1.378,1.378,0,0,0,35.3,71.13H31.161V64.239a1.378,1.378,0,0,0-1.378-1.378H22.891a1.378,1.378,0,0,0-1.378,1.378V71.13H17.378A1.378,1.378,0,0,0,16,72.508V94.56a1.378,1.378,0,0,0,1.378,1.378h2.756v1.378a1.378,1.378,0,1,0,2.757,0V95.939h6.891v1.378a1.378,1.378,0,1,0,2.757,0V95.939H35.3a1.384,1.384,0,0,0,.2-.016l-.182,1.185A1.378,1.378,0,0,0,36.674,98.7h4.135a1.378,1.378,0,0,0,1.283-.875l4.655-11.879,3.775,11.8a1.378,1.378,0,0,0,1.313.958H97.317A1.378,1.378,0,0,0,98.7,97.317V54.591a1.378,1.378,0,0,0-1.378-1.378ZM24.27,65.617H28.4V71.13H24.27Zm9.648,27.565H18.757v-19.3h2.757v2.757H24.27V73.886H28.4v2.757h2.757V73.886h2.757ZM91.479,43.239a16.22,16.22,0,0,1,1.7,7.217,2.76,2.76,0,0,1-2.757,2.757H86.291V50.154l4.469-1.117-.669-2.674-2.422.606V40.282l3.107,1.554Zm-6.566-10.7a2.757,2.757,0,0,1-5.513,0V28.975L80.778,27.6l1.782,1.782a1.378,1.378,0,0,0,.975.4h1.378ZM81.16,38.052h2.049l1.7.852v8.754L79.4,49.035V39.108Zm-.382,13.48,2.757-.689v2.37H80.778Zm-6.891-18.2a1.976,1.976,0,0,1,.208-.88l1.025-2.05a1.378,1.378,0,0,0,.146-.617v-1.62a6.644,6.644,0,0,1,6.644-6.648h.208a6.906,6.906,0,0,1,4.91,2.021,6.832,6.832,0,0,1,2.022,4.872v1.377a1.377,1.377,0,0,0,.146.617l1.025,2.049a1.967,1.967,0,0,1-1.76,2.847H86.928a5.478,5.478,0,0,0,.742-2.757V28.4a1.378,1.378,0,0,0-1.378-1.378H84.105l-2.353-2.353a1.378,1.378,0,0,0-1.949,0l-2.757,2.757a1.378,1.378,0,0,0-.4.975v4.135a5.477,5.477,0,0,0,.742,2.757H75.854a1.969,1.969,0,0,1-1.967-1.967Zm-.942,15.679a1.378,1.378,0,0,0,.916-1.037l1.259-6.293,1.525-.915V53.213H71.13v-3.6ZM65.617,51.45l2.757-.919v2.682H65.617Zm-3.564,4.52H95.939V60.1H54.87l-.217-3.252L58.11,58.58a1.378,1.378,0,0,0,1.591-.258Zm-2.52-1.378-1.079,1.08-3.863-1.931v-4.09ZM42.187,27.026V24.269H47.7v2.757a2.757,2.757,0,0,1-5.513,0Zm0-6.154,2.721-1.814A1.8,1.8,0,0,1,47.7,20.552v.961H42.187ZM37.57,36.966a4.156,4.156,0,0,1,1-1.616l3.576-3.576a5.5,5.5,0,0,0,5.6,0l2.882,2.882a4.108,4.108,0,0,1,1.211,2.924V54.591H42.187V49.4l3.989-7.979-2.465-1.233-2.222,4.444-5.828-1.943ZM33.979,47.74l.81-2.431,5.454,1.818-.668,1.335a1.378,1.378,0,0,0-.146.616v12.4h-1.7Zm5.89,48.2H38.28l2.512-16.33a1.367,1.367,0,0,0,.016-.174L41.1,68.284l4.319,13.5Zm13.344,0h-.372L42.187,62.645v-5.3h9.737L54.5,95.939Zm4.046,0L55.054,62.86H95.939V95.939Z" fill="#b3c867"/>
    <rect id="Rectángulo_461267" data-name="Rectángulo 461267" width="3" height="2" transform="translate(75.348 89.348)" fill="#b3c867"/>
    <rect id="Rectángulo_461268" data-name="Rectángulo 461268" width="11" height="2" transform="translate(80.348 89.348)" fill="#b3c867"/>
    <rect id="Rectángulo_461269" data-name="Rectángulo 461269" width="8" height="3" transform="translate(83.348 83.348)" fill="#b3c867"/>
  </g>
</svg>
