<svg xmlns="http://www.w3.org/2000/svg" xmlns:xlink="http://www.w3.org/1999/xlink" width="109" height="109" viewBox="0 0 109 109">
  <defs>
    <filter id="Elipse_13842" x="0" y="0" width="109" height="109" filterUnits="userSpaceOnUse">
      <feOffset dy="3" input="SourceAlpha"/>
      <feGaussianBlur stdDeviation="3" result="blur"/>
      <feFlood flood-opacity="0.161"/>
      <feComposite operator="in" in2="blur"/>
      <feComposite in="SourceGraphic"/>
    </filter>
  </defs>
  <g id="Grupo_1194162" data-name="Grupo 1194162" transform="translate(-176.348 -3819)">
    <g transform="matrix(1, 0, 0, 1, 176.35, 3819)" filter="url(#Elipse_13842)">
      <circle id="Elipse_13842-2" data-name="Elipse 13842" cx="45.5" cy="45.5" r="45.5" transform="translate(9 6)" fill="#fff"/>
    </g>
    <g id="XMLID_1880_" transform="translate(205.348 3845.418)">
      <g id="XMLID_621_">
        <path id="XMLID_622_" d="M222.287,356.266a.978.978,0,1,0,.692-.287A.985.985,0,0,0,222.287,356.266Z" transform="translate(-200.276 -321.144)" fill="#819aaa"/>
        <path id="XMLID_1486_" d="M448.979,403a.979.979,0,1,0,.692.287A.986.986,0,0,0,448.979,403Z" transform="translate(-404.16 -363.564)" fill="#819aaa"/>
        <path id="XMLID_1777_" d="M49.124,26.03H44.818V17.82a4.908,4.908,0,0,0-3.837-4.767l-3.2-.7a5.122,5.122,0,0,0,1.8-3.9V5.134a5.134,5.134,0,0,0-10.267,0V8.458A5.123,5.123,0,0,0,31.1,12.35l-3.2.7a4.909,4.909,0,0,0-3.834,4.766v4.3H18.788a.979.979,0,0,0-.979.979V26.03H10.96V23.29h4.11a.979.979,0,0,0,.979-.979V11.743a.979.979,0,0,0-.979-.979H.979A.979.979,0,0,0,0,11.743V22.311a.979.979,0,0,0,.979.979h4.11v2.74H.979A.979.979,0,0,0,0,27.008v4.7a.979.979,0,0,0,.979.979H4.306v16.44a.979.979,0,0,0,.979.979H44.818a.979.979,0,0,0,.979-.979V44.329a.979.979,0,0,0-1.957,0v3.816H6.263V36.792H18.788a.979.979,0,0,0,0-1.957H6.263V32.684H43.84V36.5a.979.979,0,0,0,1.957,0V32.684h3.327a.979.979,0,0,0,.979-.979v-4.7A.979.979,0,0,0,49.124,26.03ZM31.269,7.764h1.347a9,9,0,0,0,5.007-1.505v2.2a3.177,3.177,0,0,1-6.353,0Zm3.177,5.827a5.137,5.137,0,0,0,.893-.079l-.905,2.038-.907-2.043A5.148,5.148,0,0,0,34.445,13.592Zm0-11.634a3.181,3.181,0,0,1,2.951,2,7.058,7.058,0,0,1-4.781,1.848H31.269V5.134A3.18,3.18,0,0,1,34.445,1.957ZM26.03,17.818a2.94,2.94,0,0,1,2.3-2.854l3.377-.741,1.837,4.135a.979.979,0,0,0,1.789,0l1.837-4.136,3.4.743a2.94,2.94,0,0,1,2.3,2.855v8.21H32.293V23.094a.979.979,0,0,0-.979-.979H26.03Zm-6.263,6.255H30.335V26.03H19.767ZM1.957,12.721H14.091v8.611H10.945a2.936,2.936,0,0,0-5.841,0H1.957Zm5.089,8.912a.979.979,0,0,1,1.957,0v4.4H7.046Zm41.1,9.093H1.957v-2.74H48.145Z" fill="#819aaa"/>
      </g>
    </g>
  </g>
</svg>
